<?xml version="1.0" standalone="no"?>
<!DOCTYPE svg PUBLIC "-//W3C//DTD SVG 20010904//EN" "http://www.w3.org/TR/2001/REC-SVG-20010904/DTD/svg10.dtd">
<svg version="1.1" xmlns="http://www.w3.org/2000/svg" width="1024" height="1024" viewBox="0 0 1024 1024" preserveAspectRatio="xMidYMid meet">
  <title>FinPrompter</title>
  <path d="M512 0C229.23 0 0 229.23 0 512c0 282.77 229.23 512 512 512 282.77 0 512-229.23 512-512C1024 229.23 794.77 0 512 0zM512 930.91c-231.357 0-418.909-187.552-418.909-418.909S280.643 93.091 512 93.091 930.909 280.643 930.909 512 743.357 930.91 512 930.91z" fill="#000000"/>
  <path d="M512 186.182c-179.782 0-325.818 146.036-325.818 325.818S332.218 837.818 512 837.818 837.818 691.782 837.818 512 691.782 186.182 512 186.182zM512 744.727c-128.416 0-232.727-104.311-232.727-232.727S383.584 279.273 512 279.273 744.727 383.584 744.727 512 640.416 744.727 512 744.727z" fill="#000000"/>
  <circle cx="512" cy="512" r="139.636" fill="#000000"/>
</svg> 